<mxfile host="app.diagrams.net" modified="2022-01-19T05:47:46.663Z" agent="5.0 (Windows NT 10.0; WOW64) AppleWebKit/537.36 (KHTML, like Gecko) Chrome/80.0.3987.87 Safari/537.36 SE 2.X MetaSr 1.0" etag="_boAECMYWCp5zd1KWQtn" version="16.3.0" type="github">
  <diagram id="C5RBs43oDa-KdzZeNtuy" name="Page-1">
    <mxGraphModel dx="1422" dy="747" grid="1" gridSize="10" guides="1" tooltips="1" connect="1" arrows="1" fold="1" page="1" pageScale="1" pageWidth="827" pageHeight="1169" math="0" shadow="0">
      <root>
        <mxCell id="WIyWlLk6GJQsqaUBKTNV-0" />
        <mxCell id="WIyWlLk6GJQsqaUBKTNV-1" parent="WIyWlLk6GJQsqaUBKTNV-0" />
        <mxCell id="Dk4qvVHgBjQkyUk6zHHB-32" value="欢句Live合规系统直播审核流程" style="swimlane;childLayout=stackLayout;resizeParent=1;resizeParentMax=0;startSize=20;" vertex="1" parent="WIyWlLk6GJQsqaUBKTNV-1">
          <mxGeometry x="210" y="70" width="960" height="1200" as="geometry" />
        </mxCell>
        <mxCell id="Dk4qvVHgBjQkyUk6zHHB-33" value="合规人员" style="swimlane;startSize=20;" vertex="1" parent="Dk4qvVHgBjQkyUk6zHHB-32">
          <mxGeometry y="20" width="300" height="1180" as="geometry" />
        </mxCell>
        <mxCell id="Dk4qvVHgBjQkyUk6zHHB-90" value="直播监控完成" style="whiteSpace=wrap;html=1;rounded=1;arcSize=0;" vertex="1" parent="Dk4qvVHgBjQkyUk6zHHB-33">
          <mxGeometry x="65" y="829" width="120" height="60" as="geometry" />
        </mxCell>
        <mxCell id="Dk4qvVHgBjQkyUk6zHHB-34" value="业务人员" style="swimlane;startSize=20;" vertex="1" parent="Dk4qvVHgBjQkyUk6zHHB-32">
          <mxGeometry x="300" y="20" width="300" height="1180" as="geometry" />
        </mxCell>
        <mxCell id="Dk4qvVHgBjQkyUk6zHHB-35" value="专兼职人员" style="swimlane;startSize=20;" vertex="1" parent="Dk4qvVHgBjQkyUk6zHHB-32">
          <mxGeometry x="600" y="20" width="360" height="1180" as="geometry" />
        </mxCell>
        <mxCell id="Dk4qvVHgBjQkyUk6zHHB-40" value="" style="swimlane;childLayout=stackLayout;resizeParent=1;resizeParentMax=0;horizontal=1;startSize=20;horizontalStack=0;" vertex="1" parent="Dk4qvVHgBjQkyUk6zHHB-35">
          <mxGeometry x="-620" y="20" width="980" height="1170" as="geometry" />
        </mxCell>
        <mxCell id="Dk4qvVHgBjQkyUk6zHHB-41" value="事前" style="swimlane;startSize=20;horizontal=0;" vertex="1" parent="Dk4qvVHgBjQkyUk6zHHB-40">
          <mxGeometry y="20" width="980" height="400" as="geometry" />
        </mxCell>
        <mxCell id="Dk4qvVHgBjQkyUk6zHHB-54" style="edgeStyle=orthogonalEdgeStyle;rounded=0;orthogonalLoop=1;jettySize=auto;html=1;exitX=0.5;exitY=1;exitDx=0;exitDy=0;entryX=0.5;entryY=0;entryDx=0;entryDy=0;" edge="1" parent="Dk4qvVHgBjQkyUk6zHHB-41" source="Dk4qvVHgBjQkyUk6zHHB-47" target="Dk4qvVHgBjQkyUk6zHHB-48">
          <mxGeometry relative="1" as="geometry" />
        </mxCell>
        <mxCell id="Dk4qvVHgBjQkyUk6zHHB-47" value="创建直播间" style="rounded=1;whiteSpace=wrap;html=1;" vertex="1" parent="Dk4qvVHgBjQkyUk6zHHB-41">
          <mxGeometry x="400" y="10" width="120" height="60" as="geometry" />
        </mxCell>
        <mxCell id="Dk4qvVHgBjQkyUk6zHHB-48" value="填写直播间资料及&lt;br&gt;直播间观看地址&lt;br&gt;提交送审材料" style="whiteSpace=wrap;html=1;rounded=0;" vertex="1" parent="Dk4qvVHgBjQkyUk6zHHB-41">
          <mxGeometry x="400" y="104" width="120" height="60" as="geometry" />
        </mxCell>
        <mxCell id="Dk4qvVHgBjQkyUk6zHHB-49" value="审核直播间资料" style="whiteSpace=wrap;html=1;rounded=1;arcSize=0;" vertex="1" parent="Dk4qvVHgBjQkyUk6zHHB-41">
          <mxGeometry x="85" y="104" width="120" height="60" as="geometry" />
        </mxCell>
        <mxCell id="Dk4qvVHgBjQkyUk6zHHB-50" value="业务修改资料&lt;br&gt;重新提交" style="whiteSpace=wrap;html=1;rounded=1;arcSize=0;" vertex="1" parent="Dk4qvVHgBjQkyUk6zHHB-41">
          <mxGeometry x="400" y="202" width="120" height="60" as="geometry" />
        </mxCell>
        <mxCell id="Dk4qvVHgBjQkyUk6zHHB-55" value="资料审核通过" style="rhombus;whiteSpace=wrap;html=1;rounded=1;arcSize=0;" vertex="1" parent="Dk4qvVHgBjQkyUk6zHHB-41">
          <mxGeometry x="80" y="194" width="130" height="80" as="geometry" />
        </mxCell>
        <mxCell id="Dk4qvVHgBjQkyUk6zHHB-56" value="资料审核完成" style="whiteSpace=wrap;html=1;rounded=1;arcSize=0;" vertex="1" parent="Dk4qvVHgBjQkyUk6zHHB-41">
          <mxGeometry x="85" y="310" width="120" height="60" as="geometry" />
        </mxCell>
        <mxCell id="Dk4qvVHgBjQkyUk6zHHB-129" value="" style="endArrow=classic;html=1;rounded=0;exitX=0;exitY=0.5;exitDx=0;exitDy=0;entryX=1;entryY=0.5;entryDx=0;entryDy=0;" edge="1" parent="Dk4qvVHgBjQkyUk6zHHB-41" source="Dk4qvVHgBjQkyUk6zHHB-48" target="Dk4qvVHgBjQkyUk6zHHB-49">
          <mxGeometry width="50" height="50" relative="1" as="geometry">
            <mxPoint x="320" y="159" as="sourcePoint" />
            <mxPoint x="370" y="109" as="targetPoint" />
          </mxGeometry>
        </mxCell>
        <mxCell id="Dk4qvVHgBjQkyUk6zHHB-131" value="" style="endArrow=classic;html=1;rounded=0;exitX=0.5;exitY=1;exitDx=0;exitDy=0;entryX=0.5;entryY=0;entryDx=0;entryDy=0;" edge="1" parent="Dk4qvVHgBjQkyUk6zHHB-41" source="Dk4qvVHgBjQkyUk6zHHB-49" target="Dk4qvVHgBjQkyUk6zHHB-55">
          <mxGeometry width="50" height="50" relative="1" as="geometry">
            <mxPoint x="260" y="270" as="sourcePoint" />
            <mxPoint x="310" y="220" as="targetPoint" />
          </mxGeometry>
        </mxCell>
        <mxCell id="Dk4qvVHgBjQkyUk6zHHB-178" value="驳回" style="endArrow=classic;html=1;rounded=0;entryX=0;entryY=0.5;entryDx=0;entryDy=0;" edge="1" parent="Dk4qvVHgBjQkyUk6zHHB-41" target="Dk4qvVHgBjQkyUk6zHHB-50">
          <mxGeometry relative="1" as="geometry">
            <mxPoint x="210" y="233.5" as="sourcePoint" />
            <mxPoint x="370" y="233.5" as="targetPoint" />
          </mxGeometry>
        </mxCell>
        <mxCell id="Dk4qvVHgBjQkyUk6zHHB-179" value="驳回" style="edgeLabel;resizable=0;html=1;align=center;verticalAlign=middle;dashed=1;" connectable="0" vertex="1" parent="Dk4qvVHgBjQkyUk6zHHB-178">
          <mxGeometry relative="1" as="geometry" />
        </mxCell>
        <mxCell id="Dk4qvVHgBjQkyUk6zHHB-185" value="" style="endArrow=classic;html=1;rounded=0;entryX=0.5;entryY=0;entryDx=0;entryDy=0;exitX=0.5;exitY=1;exitDx=0;exitDy=0;" edge="1" parent="Dk4qvVHgBjQkyUk6zHHB-41" source="Dk4qvVHgBjQkyUk6zHHB-55" target="Dk4qvVHgBjQkyUk6zHHB-56">
          <mxGeometry relative="1" as="geometry">
            <mxPoint x="145" y="280" as="sourcePoint" />
            <mxPoint x="250" y="274" as="targetPoint" />
          </mxGeometry>
        </mxCell>
        <mxCell id="Dk4qvVHgBjQkyUk6zHHB-186" value="通过" style="edgeLabel;resizable=0;html=1;align=center;verticalAlign=middle;dashed=1;" connectable="0" vertex="1" parent="Dk4qvVHgBjQkyUk6zHHB-185">
          <mxGeometry relative="1" as="geometry" />
        </mxCell>
        <mxCell id="Dk4qvVHgBjQkyUk6zHHB-190" value="" style="endArrow=none;html=1;rounded=0;edgeStyle=orthogonalEdgeStyle;entryX=0.5;entryY=0;entryDx=0;entryDy=0;exitX=0.5;exitY=0;exitDx=0;exitDy=0;" edge="1" parent="Dk4qvVHgBjQkyUk6zHHB-41" source="Dk4qvVHgBjQkyUk6zHHB-55" target="Dk4qvVHgBjQkyUk6zHHB-50">
          <mxGeometry width="50" height="50" relative="1" as="geometry">
            <mxPoint x="150" y="190" as="sourcePoint" />
            <mxPoint x="450" y="260" as="targetPoint" />
          </mxGeometry>
        </mxCell>
        <mxCell id="Dk4qvVHgBjQkyUk6zHHB-42" value="事中" style="swimlane;startSize=20;horizontal=0;" vertex="1" parent="Dk4qvVHgBjQkyUk6zHHB-40">
          <mxGeometry y="420" width="980" height="360" as="geometry" />
        </mxCell>
        <mxCell id="Dk4qvVHgBjQkyUk6zHHB-57" value="开始直播" style="whiteSpace=wrap;html=1;rounded=1;arcSize=0;" vertex="1" parent="Dk4qvVHgBjQkyUk6zHHB-42">
          <mxGeometry x="408" y="25" width="120" height="60" as="geometry" />
        </mxCell>
        <mxCell id="Dk4qvVHgBjQkyUk6zHHB-58" value="开始直播监控" style="whiteSpace=wrap;html=1;rounded=1;arcSize=0;" vertex="1" parent="Dk4qvVHgBjQkyUk6zHHB-42">
          <mxGeometry x="730" y="25" width="120" height="60" as="geometry" />
        </mxCell>
        <mxCell id="Dk4qvVHgBjQkyUk6zHHB-60" value="自动语音转文字&lt;br&gt;打点即时填写合规记录" style="whiteSpace=wrap;html=1;rounded=1;arcSize=0;" vertex="1" parent="Dk4qvVHgBjQkyUk6zHHB-42">
          <mxGeometry x="723" y="133" width="134" height="60" as="geometry" />
        </mxCell>
        <mxCell id="Dk4qvVHgBjQkyUk6zHHB-81" value="结束直播" style="whiteSpace=wrap;html=1;rounded=1;arcSize=0;" vertex="1" parent="Dk4qvVHgBjQkyUk6zHHB-42">
          <mxGeometry x="408" y="133" width="120" height="60" as="geometry" />
        </mxCell>
        <mxCell id="Dk4qvVHgBjQkyUk6zHHB-82" value="提交合规记录单" style="whiteSpace=wrap;html=1;rounded=1;arcSize=0;" vertex="1" parent="Dk4qvVHgBjQkyUk6zHHB-42">
          <mxGeometry x="730" y="260" width="120" height="60" as="geometry" />
        </mxCell>
        <mxCell id="Dk4qvVHgBjQkyUk6zHHB-145" value="" style="endArrow=classic;html=1;rounded=0;entryX=1;entryY=0.5;entryDx=0;entryDy=0;" edge="1" parent="Dk4qvVHgBjQkyUk6zHHB-42" source="Dk4qvVHgBjQkyUk6zHHB-57" target="Dk4qvVHgBjQkyUk6zHHB-59">
          <mxGeometry width="50" height="50" relative="1" as="geometry">
            <mxPoint x="147.28932188134524" y="-425" as="sourcePoint" />
            <mxPoint x="527.2893218813452" y="585" as="targetPoint" />
          </mxGeometry>
        </mxCell>
        <mxCell id="Dk4qvVHgBjQkyUk6zHHB-146" value="" style="endArrow=classic;html=1;rounded=0;entryX=0;entryY=0.5;entryDx=0;entryDy=0;" edge="1" parent="Dk4qvVHgBjQkyUk6zHHB-42" target="Dk4qvVHgBjQkyUk6zHHB-58">
          <mxGeometry width="50" height="50" relative="1" as="geometry">
            <mxPoint x="530" y="55" as="sourcePoint" />
            <mxPoint x="570" y="50" as="targetPoint" />
          </mxGeometry>
        </mxCell>
        <mxCell id="Dk4qvVHgBjQkyUk6zHHB-148" value="" style="endArrow=classic;html=1;rounded=0;exitX=1;exitY=0.5;exitDx=0;exitDy=0;entryX=0;entryY=0.5;entryDx=0;entryDy=0;" edge="1" parent="Dk4qvVHgBjQkyUk6zHHB-42" source="Dk4qvVHgBjQkyUk6zHHB-80" target="Dk4qvVHgBjQkyUk6zHHB-81">
          <mxGeometry width="50" height="50" relative="1" as="geometry">
            <mxPoint x="220" y="220" as="sourcePoint" />
            <mxPoint x="270" y="170" as="targetPoint" />
          </mxGeometry>
        </mxCell>
        <mxCell id="Dk4qvVHgBjQkyUk6zHHB-151" value="" style="edgeStyle=elbowEdgeStyle;elbow=vertical;endArrow=classic;html=1;rounded=0;exitX=0.5;exitY=1;exitDx=0;exitDy=0;entryX=0.5;entryY=0;entryDx=0;entryDy=0;" edge="1" parent="Dk4qvVHgBjQkyUk6zHHB-42" source="Dk4qvVHgBjQkyUk6zHHB-81" target="Dk4qvVHgBjQkyUk6zHHB-83">
          <mxGeometry width="50" height="50" relative="1" as="geometry">
            <mxPoint x="370" y="270" as="sourcePoint" />
            <mxPoint x="420" y="220" as="targetPoint" />
          </mxGeometry>
        </mxCell>
        <mxCell id="Dk4qvVHgBjQkyUk6zHHB-152" value="" style="edgeStyle=elbowEdgeStyle;elbow=vertical;endArrow=classic;html=1;rounded=0;exitX=0.5;exitY=1;exitDx=0;exitDy=0;entryX=0.5;entryY=0;entryDx=0;entryDy=0;" edge="1" parent="Dk4qvVHgBjQkyUk6zHHB-42" source="Dk4qvVHgBjQkyUk6zHHB-81" target="Dk4qvVHgBjQkyUk6zHHB-82">
          <mxGeometry width="50" height="50" relative="1" as="geometry">
            <mxPoint x="500" y="280" as="sourcePoint" />
            <mxPoint x="550" y="230" as="targetPoint" />
          </mxGeometry>
        </mxCell>
        <mxCell id="Dk4qvVHgBjQkyUk6zHHB-59" value="开始直播监控" style="whiteSpace=wrap;html=1;rounded=1;arcSize=0;" vertex="1" parent="Dk4qvVHgBjQkyUk6zHHB-42">
          <mxGeometry x="85" y="25" width="120" height="60" as="geometry" />
        </mxCell>
        <mxCell id="Dk4qvVHgBjQkyUk6zHHB-83" value="提交合规记录单" style="whiteSpace=wrap;html=1;rounded=1;arcSize=0;" vertex="1" parent="Dk4qvVHgBjQkyUk6zHHB-42">
          <mxGeometry x="85" y="260" width="120" height="60" as="geometry" />
        </mxCell>
        <mxCell id="Dk4qvVHgBjQkyUk6zHHB-147" value="" style="endArrow=classic;html=1;rounded=0;entryX=0.5;entryY=0;entryDx=0;entryDy=0;exitX=0.5;exitY=1;exitDx=0;exitDy=0;" edge="1" parent="Dk4qvVHgBjQkyUk6zHHB-42" source="Dk4qvVHgBjQkyUk6zHHB-59" target="Dk4qvVHgBjQkyUk6zHHB-80">
          <mxGeometry width="50" height="50" relative="1" as="geometry">
            <mxPoint x="140" y="130" as="sourcePoint" />
            <mxPoint x="190" y="80" as="targetPoint" />
          </mxGeometry>
        </mxCell>
        <mxCell id="Dk4qvVHgBjQkyUk6zHHB-80" value="自动语音转文字&lt;br&gt;打点即时填写合规记录" style="whiteSpace=wrap;html=1;rounded=1;arcSize=0;" vertex="1" parent="Dk4qvVHgBjQkyUk6zHHB-42">
          <mxGeometry x="78" y="133" width="134" height="60" as="geometry" />
        </mxCell>
        <mxCell id="Dk4qvVHgBjQkyUk6zHHB-191" value="" style="endArrow=classic;html=1;rounded=0;exitX=0.5;exitY=1;exitDx=0;exitDy=0;" edge="1" parent="Dk4qvVHgBjQkyUk6zHHB-42" source="Dk4qvVHgBjQkyUk6zHHB-58" target="Dk4qvVHgBjQkyUk6zHHB-60">
          <mxGeometry width="50" height="50" relative="1" as="geometry">
            <mxPoint x="780" y="130" as="sourcePoint" />
            <mxPoint x="830" y="80" as="targetPoint" />
          </mxGeometry>
        </mxCell>
        <mxCell id="Dk4qvVHgBjQkyUk6zHHB-43" value="事后" style="swimlane;startSize=20;horizontal=0;" vertex="1" parent="Dk4qvVHgBjQkyUk6zHHB-40">
          <mxGeometry y="780" width="980" height="390" as="geometry" />
        </mxCell>
        <mxCell id="Dk4qvVHgBjQkyUk6zHHB-84" value="直播监控完成" style="whiteSpace=wrap;html=1;rounded=1;arcSize=0;" vertex="1" parent="Dk4qvVHgBjQkyUk6zHHB-43">
          <mxGeometry x="730" y="50" width="120" height="60" as="geometry" />
        </mxCell>
        <mxCell id="Dk4qvVHgBjQkyUk6zHHB-155" value="" style="edgeStyle=elbowEdgeStyle;elbow=vertical;endArrow=classic;html=1;rounded=0;entryX=0.5;entryY=0;entryDx=0;entryDy=0;dashed=1;" edge="1" parent="Dk4qvVHgBjQkyUk6zHHB-43" source="Dk4qvVHgBjQkyUk6zHHB-84" target="Dk4qvVHgBjQkyUk6zHHB-91">
          <mxGeometry width="50" height="50" relative="1" as="geometry">
            <mxPoint x="600" y="-720" as="sourcePoint" />
            <mxPoint x="370" y="480" as="targetPoint" />
          </mxGeometry>
        </mxCell>
        <mxCell id="Dk4qvVHgBjQkyUk6zHHB-169" style="edgeStyle=orthogonalEdgeStyle;rounded=0;orthogonalLoop=1;jettySize=auto;html=1;exitX=0.008;exitY=0.4;exitDx=0;exitDy=0;entryX=1;entryY=0.5;entryDx=0;entryDy=0;endArrow=classic;endFill=1;exitPerimeter=0;" edge="1" parent="Dk4qvVHgBjQkyUk6zHHB-43" source="Dk4qvVHgBjQkyUk6zHHB-84" target="Dk4qvVHgBjQkyUk6zHHB-92">
          <mxGeometry relative="1" as="geometry">
            <mxPoint x="740" y="80" as="sourcePoint" />
            <mxPoint x="1159" y="80" as="targetPoint" />
          </mxGeometry>
        </mxCell>
        <mxCell id="Dk4qvVHgBjQkyUk6zHHB-91" value="事后回溯抽查" style="whiteSpace=wrap;html=1;rounded=1;arcSize=0;" vertex="1" parent="Dk4qvVHgBjQkyUk6zHHB-43">
          <mxGeometry x="85" y="130" width="120" height="60" as="geometry" />
        </mxCell>
        <mxCell id="Dk4qvVHgBjQkyUk6zHHB-92" value="自动合规存储" style="whiteSpace=wrap;html=1;rounded=1;arcSize=0;" vertex="1" parent="Dk4qvVHgBjQkyUk6zHHB-43">
          <mxGeometry x="85" y="219" width="120" height="60" as="geometry" />
        </mxCell>
        <mxCell id="Dk4qvVHgBjQkyUk6zHHB-88" value="完成" style="whiteSpace=wrap;html=1;rounded=1;arcSize=0;flipV=1;flipH=1;" vertex="1" parent="Dk4qvVHgBjQkyUk6zHHB-43">
          <mxGeometry x="85" y="309" width="120" height="60" as="geometry" />
        </mxCell>
        <mxCell id="Dk4qvVHgBjQkyUk6zHHB-170" value="" style="endArrow=classic;html=1;rounded=0;exitX=0.5;exitY=1;exitDx=0;exitDy=0;entryX=0.5;entryY=0;entryDx=0;entryDy=0;dashed=1;" edge="1" parent="Dk4qvVHgBjQkyUk6zHHB-43" source="Dk4qvVHgBjQkyUk6zHHB-91" target="Dk4qvVHgBjQkyUk6zHHB-92">
          <mxGeometry width="50" height="50" relative="1" as="geometry">
            <mxPoint x="140" y="230" as="sourcePoint" />
            <mxPoint x="190" y="180" as="targetPoint" />
          </mxGeometry>
        </mxCell>
        <mxCell id="Dk4qvVHgBjQkyUk6zHHB-171" value="" style="endArrow=classic;html=1;rounded=0;exitX=0.5;exitY=1;exitDx=0;exitDy=0;" edge="1" parent="Dk4qvVHgBjQkyUk6zHHB-43" source="Dk4qvVHgBjQkyUk6zHHB-92" target="Dk4qvVHgBjQkyUk6zHHB-88">
          <mxGeometry width="50" height="50" relative="1" as="geometry">
            <mxPoint x="150" y="330" as="sourcePoint" />
            <mxPoint x="200" y="280" as="targetPoint" />
          </mxGeometry>
        </mxCell>
        <mxCell id="Dk4qvVHgBjQkyUk6zHHB-144" style="edgeStyle=orthogonalEdgeStyle;rounded=0;orthogonalLoop=1;jettySize=auto;html=1;exitX=1;exitY=0.5;exitDx=0;exitDy=0;entryX=0.5;entryY=0;entryDx=0;entryDy=0;" edge="1" parent="Dk4qvVHgBjQkyUk6zHHB-40" source="Dk4qvVHgBjQkyUk6zHHB-56" target="Dk4qvVHgBjQkyUk6zHHB-57">
          <mxGeometry relative="1" as="geometry" />
        </mxCell>
        <mxCell id="Dk4qvVHgBjQkyUk6zHHB-153" value="" style="endArrow=classic;html=1;rounded=0;exitX=0.5;exitY=1;exitDx=0;exitDy=0;" edge="1" parent="Dk4qvVHgBjQkyUk6zHHB-40" source="Dk4qvVHgBjQkyUk6zHHB-82" target="Dk4qvVHgBjQkyUk6zHHB-84">
          <mxGeometry width="50" height="50" relative="1" as="geometry">
            <mxPoint x="790" y="790" as="sourcePoint" />
            <mxPoint x="840" y="740" as="targetPoint" />
          </mxGeometry>
        </mxCell>
        <mxCell id="Dk4qvVHgBjQkyUk6zHHB-154" value="" style="endArrow=classic;html=1;rounded=0;exitX=0.5;exitY=1;exitDx=0;exitDy=0;entryX=0.5;entryY=0;entryDx=0;entryDy=0;" edge="1" parent="Dk4qvVHgBjQkyUk6zHHB-32" source="Dk4qvVHgBjQkyUk6zHHB-83" target="Dk4qvVHgBjQkyUk6zHHB-90">
          <mxGeometry width="50" height="50" relative="1" as="geometry">
            <mxPoint x="120" y="830" as="sourcePoint" />
            <mxPoint x="170" y="780" as="targetPoint" />
          </mxGeometry>
        </mxCell>
        <mxCell id="Dk4qvVHgBjQkyUk6zHHB-168" style="edgeStyle=orthogonalEdgeStyle;rounded=0;orthogonalLoop=1;jettySize=auto;html=1;exitX=0;exitY=0.5;exitDx=0;exitDy=0;entryX=0;entryY=0.5;entryDx=0;entryDy=0;endArrow=classic;endFill=1;" edge="1" parent="Dk4qvVHgBjQkyUk6zHHB-32" source="Dk4qvVHgBjQkyUk6zHHB-90" target="Dk4qvVHgBjQkyUk6zHHB-92">
          <mxGeometry relative="1" as="geometry">
            <mxPoint x="390" y="1050" as="sourcePoint" />
            <mxPoint x="809" y="1050" as="targetPoint" />
          </mxGeometry>
        </mxCell>
        <mxCell id="Dk4qvVHgBjQkyUk6zHHB-149" value="" style="endArrow=classic;html=1;rounded=0;" edge="1" parent="WIyWlLk6GJQsqaUBKTNV-1" target="Dk4qvVHgBjQkyUk6zHHB-81">
          <mxGeometry width="50" height="50" relative="1" as="geometry">
            <mxPoint x="910" y="690" as="sourcePoint" />
            <mxPoint x="610" y="750" as="targetPoint" />
          </mxGeometry>
        </mxCell>
        <mxCell id="Dk4qvVHgBjQkyUk6zHHB-177" value="" style="swimlane;startSize=0;dashed=1;" vertex="1" parent="WIyWlLk6GJQsqaUBKTNV-1">
          <mxGeometry x="260" y="540" width="160" height="460" as="geometry" />
        </mxCell>
      </root>
    </mxGraphModel>
  </diagram>
</mxfile>
